<svg xmlns="http://www.w3.org/2000/svg" width="1000" height="556" viewBox="0 0 1000 556">
<style>text{font-family:"微软雅黑";}</style>
<rect width="1000" height="556" fill="#FAFAFA"/>
  <text x="500" y="28" text-anchor="middle" font-size="18" font-weight="bold" fill="#2F5496">此刻校园 - 互动子系统 E-R 图</text>
  <text x="500" y="48" text-anchor="middle" font-size="11" fill="#595959">评论、点赞、浏览、搜索（6 实体）</text>
  <line x1="170" y1="123" x2="466" y2="139" stroke="#999999" stroke-width="1.5"/>
  <text x="194.9635568319377" y="128.349381450375" text-anchor="middle" font-size="13" font-weight="bold" fill="#C00000">1</text>
  <text x="441.0364431680623" y="141.650618549625" text-anchor="middle" font-size="13" font-weight="bold" fill="#C00000">N</text>
  <rect x="302" y="122" width="32" height="16" rx="8" ry="8" fill="white" stroke="#999999" stroke-width="0.5"/>
  <text x="318" y="134" text-anchor="middle" font-size="10" fill="#333333">发布</text>
  <line x1="466" y1="139" x2="758" y2="139" stroke="#999999" stroke-width="1.5"/>
  <text x="491.0" y="143.0" text-anchor="middle" font-size="13" font-weight="bold" fill="#C00000">1</text>
  <text x="733.0" y="143.0" text-anchor="middle" font-size="13" font-weight="bold" fill="#C00000">N</text>
  <rect x="596" y="130" width="32" height="16" rx="8" ry="8" fill="white" stroke="#999999" stroke-width="0.5"/>
  <text x="612" y="142" text-anchor="middle" font-size="10" fill="#333333">评论</text>
  <line x1="466" y1="139" x2="146" y2="321" stroke="#999999" stroke-width="1.5"/>
  <text x="444.2688914440412" y="155.35956799120157" text-anchor="middle" font-size="13" font-weight="bold" fill="#C00000">1</text>
  <text x="167.7311085559588" y="312.6404320087984" text-anchor="middle" font-size="13" font-weight="bold" fill="#C00000">N</text>
  <rect x="290" y="221" width="32" height="16" rx="8" ry="8" fill="white" stroke="#999999" stroke-width="0.5"/>
  <text x="306" y="233" text-anchor="middle" font-size="10" fill="#333333">点赞</text>
  <line x1="466" y1="139" x2="446" y2="321" stroke="#999999" stroke-width="1.5"/>
  <text x="463.26918620327865" y="167.85040555016428" text-anchor="middle" font-size="13" font-weight="bold" fill="#C00000">1</text>
  <text x="448.73081379672135" y="300.1495944498357" text-anchor="middle" font-size="13" font-weight="bold" fill="#C00000">N</text>
  <rect x="434" y="221" width="44" height="16" rx="8" ry="8" fill="white" stroke="#999999" stroke-width="0.5"/>
  <text x="456" y="233" text-anchor="middle" font-size="10" fill="#333333">被浏览</text>
  <line x1="170" y1="123" x2="758" y2="139" stroke="#999999" stroke-width="1.5"/>
  <text x="194.9907497337382" y="127.68002040091804" text-anchor="middle" font-size="13" font-weight="bold" fill="#C00000">1</text>
  <text x="733.0092502662618" y="142.31997959908196" text-anchor="middle" font-size="13" font-weight="bold" fill="#C00000">N</text>
  <rect x="448" y="122" width="32" height="16" rx="8" ry="8" fill="white" stroke="#999999" stroke-width="0.5"/>
  <text x="464" y="134" text-anchor="middle" font-size="10" fill="#333333">评论</text>
  <line x1="170" y1="123" x2="146" y2="321" stroke="#999999" stroke-width="1.5"/>
  <text x="166.99171581201907" y="151.8183445508427" text-anchor="middle" font-size="13" font-weight="bold" fill="#C00000">1</text>
  <text x="149.00828418798093" y="300.1816554491573" text-anchor="middle" font-size="13" font-weight="bold" fill="#C00000">N</text>
  <rect x="142" y="213" width="32" height="16" rx="8" ry="8" fill="white" stroke="#999999" stroke-width="0.5"/>
  <text x="158" y="225" text-anchor="middle" font-size="10" fill="#333333">点赞</text>
  <line x1="170" y1="123" x2="446" y2="321" stroke="#999999" stroke-width="1.5"/>
  <text x="190.31345626574213" y="141.57269688629327" text-anchor="middle" font-size="13" font-weight="bold" fill="#C00000">1</text>
  <text x="425.68654373425784" y="310.4273031137067" text-anchor="middle" font-size="13" font-weight="bold" fill="#C00000">N</text>
  <rect x="292" y="213" width="32" height="16" rx="8" ry="8" fill="white" stroke="#999999" stroke-width="0.5"/>
  <text x="308" y="225" text-anchor="middle" font-size="10" fill="#333333">浏览</text>
  <line x1="170" y1="123" x2="746" y2="321" stroke="#999999" stroke-width="1.5"/>
  <text x="193.64216498262167" y="135.1269942127762" text-anchor="middle" font-size="13" font-weight="bold" fill="#C00000">1</text>
  <text x="722.3578350173783" y="316.8730057872238" text-anchor="middle" font-size="13" font-weight="bold" fill="#C00000">N</text>
  <rect x="442" y="213" width="32" height="16" rx="8" ry="8" fill="white" stroke="#999999" stroke-width="0.5"/>
  <text x="458" y="225" text-anchor="middle" font-size="10" fill="#333333">搜索</text>
  <line x1="758" y1="139" x2="758" y2="139" stroke="#999999" stroke-width="1.5"/>
  <rect x="50" y="80" width="240" height="86" rx="4" ry="4" fill="#DEEBF7" stroke="#4472C4" stroke-width="2"/>
  <rect x="50" y="80" width="240" height="28" rx="4" ry="4" fill="#4472C4"/>
  <rect x="50" y="100" width="240" height="8" fill="#4472C4"/>
  <text x="170" y="99" text-anchor="middle" font-family="微软雅黑" font-size="13" font-weight="bold" fill="white">users</text>
  <text x="58" y="122" font-family="Consolas" font-size="11" font-weight="bold" fill="#C00000">PK id</text>
  <text x="282" y="122" text-anchor="end" font-family="Consolas" font-size="10" fill="#666666">BIGINT</text>
  <line x1="54" y1="125" x2="286" y2="125" stroke="#D9D9D9" stroke-width="0.5"/>
  <text x="58" y="138" font-family="Consolas" font-size="11" font-weight="bold" fill="#2F5496">FK school_id</text>
  <text x="282" y="138" text-anchor="end" font-family="Consolas" font-size="10" fill="#666666">BIGINT</text>
  <line x1="54" y1="141" x2="286" y2="141" stroke="#D9D9D9" stroke-width="0.5"/>
  <text x="58" y="154" font-family="Consolas" font-size="11" font-weight="normal" fill="#333333">email</text>
  <text x="282" y="154" text-anchor="end" font-family="Consolas" font-size="10" fill="#666666">VARCHAR(255)</text>
  <line x1="54" y1="157" x2="286" y2="157" stroke="#D9D9D9" stroke-width="0.5"/>
  <text x="58" y="170" font-family="Consolas" font-size="11" font-weight="normal" fill="#333333">nickname</text>
  <text x="282" y="170" text-anchor="end" font-family="Consolas" font-size="10" fill="#666666">VARCHAR(50)</text>
  <line x1="54" y1="173" x2="286" y2="173" stroke="#D9D9D9" stroke-width="0.5"/>
  <rect x="350" y="80" width="232" height="118" rx="4" ry="4" fill="#DEEBF7" stroke="#4472C4" stroke-width="2"/>
  <rect x="350" y="80" width="232" height="28" rx="4" ry="4" fill="#4472C4"/>
  <rect x="350" y="100" width="232" height="8" fill="#4472C4"/>
  <text x="466" y="99" text-anchor="middle" font-family="微软雅黑" font-size="13" font-weight="bold" fill="white">posts</text>
  <text x="358" y="122" font-family="Consolas" font-size="11" font-weight="bold" fill="#C00000">PK id</text>
  <text x="574" y="122" text-anchor="end" font-family="Consolas" font-size="10" fill="#666666">BIGINT</text>
  <line x1="354" y1="125" x2="578" y2="125" stroke="#D9D9D9" stroke-width="0.5"/>
  <text x="358" y="138" font-family="Consolas" font-size="11" font-weight="bold" fill="#2F5496">FK user_id</text>
  <text x="574" y="138" text-anchor="end" font-family="Consolas" font-size="10" fill="#666666">BIGINT</text>
  <line x1="354" y1="141" x2="578" y2="141" stroke="#D9D9D9" stroke-width="0.5"/>
  <text x="358" y="154" font-family="Consolas" font-size="11" font-weight="bold" fill="#2F5496">FK school_id</text>
  <text x="574" y="154" text-anchor="end" font-family="Consolas" font-size="10" fill="#666666">BIGINT</text>
  <line x1="354" y1="157" x2="578" y2="157" stroke="#D9D9D9" stroke-width="0.5"/>
  <text x="358" y="170" font-family="Consolas" font-size="11" font-weight="bold" fill="#2F5496">FK category_id</text>
  <text x="574" y="170" text-anchor="end" font-family="Consolas" font-size="10" fill="#666666">BIGINT</text>
  <line x1="354" y1="173" x2="578" y2="173" stroke="#D9D9D9" stroke-width="0.5"/>
  <text x="358" y="186" font-family="Consolas" font-size="11" font-weight="bold" fill="#2F5496">FK location_id</text>
  <text x="574" y="186" text-anchor="end" font-family="Consolas" font-size="10" fill="#666666">BIGINT</text>
  <line x1="354" y1="189" x2="578" y2="189" stroke="#D9D9D9" stroke-width="0.5"/>
  <rect x="650" y="80" width="216" height="118" rx="4" ry="4" fill="#FFF2CC" stroke="#FFC000" stroke-width="2"/>
  <rect x="650" y="80" width="216" height="28" rx="4" ry="4" fill="#FFC000"/>
  <rect x="650" y="100" width="216" height="8" fill="#FFC000"/>
  <text x="758" y="99" text-anchor="middle" font-family="微软雅黑" font-size="13" font-weight="bold" fill="white">comments</text>
  <text x="658" y="122" font-family="Consolas" font-size="11" font-weight="bold" fill="#C00000">PK id</text>
  <text x="858" y="122" text-anchor="end" font-family="Consolas" font-size="10" fill="#666666">BIGINT</text>
  <line x1="654" y1="125" x2="862" y2="125" stroke="#D9D9D9" stroke-width="0.5"/>
  <text x="658" y="138" font-family="Consolas" font-size="11" font-weight="bold" fill="#2F5496">FK post_id</text>
  <text x="858" y="138" text-anchor="end" font-family="Consolas" font-size="10" fill="#666666">BIGINT</text>
  <line x1="654" y1="141" x2="862" y2="141" stroke="#D9D9D9" stroke-width="0.5"/>
  <text x="658" y="154" font-family="Consolas" font-size="11" font-weight="bold" fill="#2F5496">FK user_id</text>
  <text x="858" y="154" text-anchor="end" font-family="Consolas" font-size="10" fill="#666666">BIGINT</text>
  <line x1="654" y1="157" x2="862" y2="157" stroke="#D9D9D9" stroke-width="0.5"/>
  <text x="658" y="170" font-family="Consolas" font-size="11" font-weight="bold" fill="#2F5496">FK parent_id</text>
  <text x="858" y="170" text-anchor="end" font-family="Consolas" font-size="10" fill="#666666">BIGINT</text>
  <line x1="654" y1="173" x2="862" y2="173" stroke="#D9D9D9" stroke-width="0.5"/>
  <text x="658" y="186" font-family="Consolas" font-size="11" font-weight="bold" fill="#2F5496">FK reply_to_user_id</text>
  <text x="858" y="186" text-anchor="end" font-family="Consolas" font-size="10" fill="#666666">BIGINT</text>
  <line x1="654" y1="189" x2="862" y2="189" stroke="#D9D9D9" stroke-width="0.5"/>
  <rect x="50" y="278" width="192" height="86" rx="4" ry="4" fill="#FFF2CC" stroke="#FFC000" stroke-width="2"/>
  <rect x="50" y="278" width="192" height="28" rx="4" ry="4" fill="#FFC000"/>
  <rect x="50" y="298" width="192" height="8" fill="#FFC000"/>
  <text x="146" y="297" text-anchor="middle" font-family="微软雅黑" font-size="13" font-weight="bold" fill="white">likes</text>
  <text x="58" y="320" font-family="Consolas" font-size="11" font-weight="bold" fill="#C00000">PK id</text>
  <text x="234" y="320" text-anchor="end" font-family="Consolas" font-size="10" fill="#666666">BIGINT</text>
  <line x1="54" y1="323" x2="238" y2="323" stroke="#D9D9D9" stroke-width="0.5"/>
  <text x="58" y="336" font-family="Consolas" font-size="11" font-weight="bold" fill="#2F5496">FK post_id</text>
  <text x="234" y="336" text-anchor="end" font-family="Consolas" font-size="10" fill="#666666">BIGINT</text>
  <line x1="54" y1="339" x2="238" y2="339" stroke="#D9D9D9" stroke-width="0.5"/>
  <text x="58" y="352" font-family="Consolas" font-size="11" font-weight="bold" fill="#2F5496">FK user_id</text>
  <text x="234" y="352" text-anchor="end" font-family="Consolas" font-size="10" fill="#666666">BIGINT</text>
  <line x1="54" y1="355" x2="238" y2="355" stroke="#D9D9D9" stroke-width="0.5"/>
  <rect x="350" y="278" width="192" height="86" rx="4" ry="4" fill="#FFF2CC" stroke="#FFC000" stroke-width="2"/>
  <rect x="350" y="278" width="192" height="28" rx="4" ry="4" fill="#FFC000"/>
  <rect x="350" y="298" width="192" height="8" fill="#FFC000"/>
  <text x="446" y="297" text-anchor="middle" font-family="微软雅黑" font-size="13" font-weight="bold" fill="white">browse_histories</text>
  <text x="358" y="320" font-family="Consolas" font-size="11" font-weight="bold" fill="#C00000">PK id</text>
  <text x="534" y="320" text-anchor="end" font-family="Consolas" font-size="10" fill="#666666">BIGINT</text>
  <line x1="354" y1="323" x2="538" y2="323" stroke="#D9D9D9" stroke-width="0.5"/>
  <text x="358" y="336" font-family="Consolas" font-size="11" font-weight="bold" fill="#2F5496">FK user_id</text>
  <text x="534" y="336" text-anchor="end" font-family="Consolas" font-size="10" fill="#666666">BIGINT</text>
  <line x1="354" y1="339" x2="538" y2="339" stroke="#D9D9D9" stroke-width="0.5"/>
  <text x="358" y="352" font-family="Consolas" font-size="11" font-weight="bold" fill="#2F5496">FK post_id</text>
  <text x="534" y="352" text-anchor="end" font-family="Consolas" font-size="10" fill="#666666">BIGINT</text>
  <line x1="354" y1="355" x2="538" y2="355" stroke="#D9D9D9" stroke-width="0.5"/>
  <rect x="650" y="278" width="192" height="86" rx="4" ry="4" fill="#FFF2CC" stroke="#FFC000" stroke-width="2"/>
  <rect x="650" y="278" width="192" height="28" rx="4" ry="4" fill="#FFC000"/>
  <rect x="650" y="298" width="192" height="8" fill="#FFC000"/>
  <text x="746" y="297" text-anchor="middle" font-family="微软雅黑" font-size="13" font-weight="bold" fill="white">search_histories</text>
  <text x="658" y="320" font-family="Consolas" font-size="11" font-weight="bold" fill="#C00000">PK id</text>
  <text x="834" y="320" text-anchor="end" font-family="Consolas" font-size="10" fill="#666666">BIGINT</text>
  <line x1="654" y1="323" x2="838" y2="323" stroke="#D9D9D9" stroke-width="0.5"/>
  <text x="658" y="336" font-family="Consolas" font-size="11" font-weight="bold" fill="#2F5496">FK user_id</text>
  <text x="834" y="336" text-anchor="end" font-family="Consolas" font-size="10" fill="#666666">BIGINT</text>
  <line x1="654" y1="339" x2="838" y2="339" stroke="#D9D9D9" stroke-width="0.5"/>
  <text x="658" y="352" font-family="Consolas" font-size="11" font-weight="normal" fill="#333333">keyword</text>
  <text x="834" y="352" text-anchor="end" font-family="Consolas" font-size="10" fill="#666666">VARCHAR(200)</text>
  <line x1="654" y1="355" x2="838" y2="355" stroke="#D9D9D9" stroke-width="0.5"/>
  <text x="658" y="368" font-family="Consolas" font-size="11" font-weight="normal" fill="#333333">result_count</text>
  <text x="834" y="368" text-anchor="end" font-family="Consolas" font-size="10" fill="#666666">INTEGER</text>
  <line x1="654" y1="371" x2="838" y2="371" stroke="#D9D9D9" stroke-width="0.5"/>
</svg>